<mxfile host="Electron" modified="2023-06-03T15:47:45.313Z" agent="Mozilla/5.0 (Windows NT 10.0; Win64; x64) AppleWebKit/537.36 (KHTML, like Gecko) draw.io/21.2.8 Chrome/112.0.5615.165 Electron/24.2.0 Safari/537.36" etag="oMwclXTfhTzfD1g8v3lY" version="21.2.8" type="device">
  <diagram name="Page-1" id="2YBvvXClWsGukQMizWep">
    <mxGraphModel dx="2284" dy="877" grid="1" gridSize="10" guides="1" tooltips="1" connect="1" arrows="1" fold="1" page="1" pageScale="1" pageWidth="850" pageHeight="1100" math="0" shadow="0">
      <root>
        <mxCell id="0" />
        <mxCell id="1" parent="0" />
        <mxCell id="RWmhtkAFn2kZdDG4kF2Q-1" value="APISource" style="shape=umlLifeline;perimeter=lifelinePerimeter;whiteSpace=wrap;html=1;container=1;dropTarget=0;collapsible=0;recursiveResize=0;outlineConnect=0;portConstraint=eastwest;newEdgeStyle={&quot;edgeStyle&quot;:&quot;elbowEdgeStyle&quot;,&quot;elbow&quot;:&quot;vertical&quot;,&quot;curved&quot;:0,&quot;rounded&quot;:0};" vertex="1" parent="1">
          <mxGeometry x="110" y="40" width="100" height="960" as="geometry" />
        </mxCell>
        <mxCell id="RWmhtkAFn2kZdDG4kF2Q-3" value="" style="html=1;points=[];perimeter=orthogonalPerimeter;outlineConnect=0;targetShapes=umlLifeline;portConstraint=eastwest;newEdgeStyle={&quot;edgeStyle&quot;:&quot;elbowEdgeStyle&quot;,&quot;elbow&quot;:&quot;vertical&quot;,&quot;curved&quot;:0,&quot;rounded&quot;:0};" vertex="1" parent="RWmhtkAFn2kZdDG4kF2Q-1">
          <mxGeometry x="45" y="100" width="10" height="830" as="geometry" />
        </mxCell>
        <mxCell id="RWmhtkAFn2kZdDG4kF2Q-18" value="&lt;font style=&quot;font-size: 10px;&quot;&gt;articleCount=0&lt;/font&gt;" style="html=1;align=left;spacingLeft=2;endArrow=block;rounded=0;edgeStyle=orthogonalEdgeStyle;curved=0;rounded=0;" edge="1" target="RWmhtkAFn2kZdDG4kF2Q-3" parent="RWmhtkAFn2kZdDG4kF2Q-1" source="RWmhtkAFn2kZdDG4kF2Q-3">
          <mxGeometry relative="1" as="geometry">
            <mxPoint x="60" y="180" as="sourcePoint" />
            <Array as="points">
              <mxPoint x="90" y="200" />
              <mxPoint x="90" y="250" />
            </Array>
            <mxPoint x="65" y="210.0140845070423" as="targetPoint" />
          </mxGeometry>
        </mxCell>
        <mxCell id="RWmhtkAFn2kZdDG4kF2Q-38" value="&lt;font style=&quot;font-size: 10px;&quot;&gt;articleCount++&lt;/font&gt;" style="html=1;align=left;spacingLeft=2;endArrow=block;rounded=0;edgeStyle=orthogonalEdgeStyle;curved=0;rounded=0;" edge="1" parent="RWmhtkAFn2kZdDG4kF2Q-1" source="RWmhtkAFn2kZdDG4kF2Q-3" target="RWmhtkAFn2kZdDG4kF2Q-3">
          <mxGeometry relative="1" as="geometry">
            <mxPoint x="65" y="670" as="sourcePoint" />
            <Array as="points">
              <mxPoint x="90" y="670" />
              <mxPoint x="90" y="720" />
            </Array>
            <mxPoint x="65" y="720" as="targetPoint" />
            <mxPoint as="offset" />
          </mxGeometry>
        </mxCell>
        <mxCell id="RWmhtkAFn2kZdDG4kF2Q-2" value="&lt;font style=&quot;font-size: 9px;&quot;&gt;(baseUrl, apiKey, tags,&lt;br&gt;queries, maxArticle)&amp;nbsp;&lt;/font&gt;" style="endArrow=blockThin;endSize=16;endFill=1;html=1;rounded=0;" edge="1" parent="1">
          <mxGeometry x="-0.04" width="160" relative="1" as="geometry">
            <mxPoint x="10" y="160" as="sourcePoint" />
            <mxPoint x="155" y="160" as="targetPoint" />
            <mxPoint as="offset" />
          </mxGeometry>
        </mxCell>
        <mxCell id="RWmhtkAFn2kZdDG4kF2Q-14" value="HTTPClient" style="shape=umlLifeline;perimeter=lifelinePerimeter;whiteSpace=wrap;html=1;container=1;dropTarget=0;collapsible=0;recursiveResize=0;outlineConnect=0;portConstraint=eastwest;newEdgeStyle={&quot;edgeStyle&quot;:&quot;elbowEdgeStyle&quot;,&quot;elbow&quot;:&quot;vertical&quot;,&quot;curved&quot;:0,&quot;rounded&quot;:0};" vertex="1" parent="1">
          <mxGeometry x="430" y="40" width="100" height="960" as="geometry" />
        </mxCell>
        <mxCell id="RWmhtkAFn2kZdDG4kF2Q-15" value="URLSetter" style="shape=umlLifeline;perimeter=lifelinePerimeter;whiteSpace=wrap;html=1;container=1;dropTarget=0;collapsible=0;recursiveResize=0;outlineConnect=0;portConstraint=eastwest;newEdgeStyle={&quot;edgeStyle&quot;:&quot;elbowEdgeStyle&quot;,&quot;elbow&quot;:&quot;vertical&quot;,&quot;curved&quot;:0,&quot;rounded&quot;:0};" vertex="1" parent="1">
          <mxGeometry x="270" y="160" width="100" height="840" as="geometry" />
        </mxCell>
        <mxCell id="RWmhtkAFn2kZdDG4kF2Q-16" value="&lt;font style=&quot;font-size: 9px;&quot;&gt;(baseUrl, apiKey,&lt;br&gt;&amp;nbsp;tags, queries)&amp;nbsp;&lt;/font&gt;" style="endArrow=blockThin;endSize=16;endFill=1;html=1;rounded=0;" edge="1" parent="1" source="RWmhtkAFn2kZdDG4kF2Q-3">
          <mxGeometry x="-0.1429" width="160" relative="1" as="geometry">
            <mxPoint x="170" y="180" as="sourcePoint" />
            <mxPoint x="270" y="180" as="targetPoint" />
            <mxPoint as="offset" />
          </mxGeometry>
        </mxCell>
        <mxCell id="RWmhtkAFn2kZdDG4kF2Q-20" value="APIParser" style="shape=umlLifeline;perimeter=lifelinePerimeter;whiteSpace=wrap;html=1;container=1;dropTarget=0;collapsible=0;recursiveResize=0;outlineConnect=0;portConstraint=eastwest;newEdgeStyle={&quot;edgeStyle&quot;:&quot;elbowEdgeStyle&quot;,&quot;elbow&quot;:&quot;vertical&quot;,&quot;curved&quot;:0,&quot;rounded&quot;:0};" vertex="1" parent="1">
          <mxGeometry x="590" y="40" width="100" height="960" as="geometry" />
        </mxCell>
        <mxCell id="RWmhtkAFn2kZdDG4kF2Q-21" value="HTMLParser" style="shape=umlLifeline;perimeter=lifelinePerimeter;whiteSpace=wrap;html=1;container=1;dropTarget=0;collapsible=0;recursiveResize=0;outlineConnect=0;portConstraint=eastwest;newEdgeStyle={&quot;edgeStyle&quot;:&quot;elbowEdgeStyle&quot;,&quot;elbow&quot;:&quot;vertical&quot;,&quot;curved&quot;:0,&quot;rounded&quot;:0};" vertex="1" parent="1">
          <mxGeometry x="750" y="40" width="100" height="960" as="geometry" />
        </mxCell>
        <mxCell id="RWmhtkAFn2kZdDG4kF2Q-37" value="" style="html=1;points=[];perimeter=orthogonalPerimeter;outlineConnect=0;targetShapes=umlLifeline;portConstraint=eastwest;newEdgeStyle={&quot;edgeStyle&quot;:&quot;elbowEdgeStyle&quot;,&quot;elbow&quot;:&quot;vertical&quot;,&quot;curved&quot;:0,&quot;rounded&quot;:0};" vertex="1" parent="RWmhtkAFn2kZdDG4kF2Q-21">
          <mxGeometry x="45" y="630" width="10" height="50" as="geometry" />
        </mxCell>
        <mxCell id="RWmhtkAFn2kZdDG4kF2Q-22" value="loop" style="shape=umlFrame;whiteSpace=wrap;html=1;pointerEvents=0;" vertex="1" parent="1">
          <mxGeometry y="330" width="880" height="600" as="geometry" />
        </mxCell>
        <mxCell id="RWmhtkAFn2kZdDG4kF2Q-23" value="&lt;font style=&quot;font-size: 10px;&quot;&gt;[articleCount&amp;lt;maxArticle]&lt;/font&gt;" style="text;strokeColor=none;fillColor=none;align=left;verticalAlign=top;spacingLeft=4;spacingRight=4;overflow=hidden;rotatable=0;points=[[0,0.5],[1,0.5]];portConstraint=eastwest;whiteSpace=wrap;html=1;" vertex="1" parent="1">
          <mxGeometry x="10" y="360" width="130" height="26" as="geometry" />
        </mxCell>
        <mxCell id="RWmhtkAFn2kZdDG4kF2Q-24" value="" style="html=1;points=[];perimeter=orthogonalPerimeter;outlineConnect=0;targetShapes=umlLifeline;portConstraint=eastwest;newEdgeStyle={&quot;edgeStyle&quot;:&quot;elbowEdgeStyle&quot;,&quot;elbow&quot;:&quot;vertical&quot;,&quot;curved&quot;:0,&quot;rounded&quot;:0};" vertex="1" parent="1">
          <mxGeometry x="315" y="380" width="10" height="70" as="geometry" />
        </mxCell>
        <mxCell id="RWmhtkAFn2kZdDG4kF2Q-25" value="&lt;font style=&quot;font-size: 10px;&quot;&gt;&amp;nbsp;getURL()&amp;nbsp;&lt;/font&gt;" style="endArrow=blockThin;endSize=16;endFill=1;html=1;rounded=0;" edge="1" parent="1" target="RWmhtkAFn2kZdDG4kF2Q-24">
          <mxGeometry x="-0.1429" width="160" relative="1" as="geometry">
            <mxPoint x="165" y="400" as="sourcePoint" />
            <mxPoint x="270" y="400" as="targetPoint" />
            <mxPoint as="offset" />
          </mxGeometry>
        </mxCell>
        <mxCell id="RWmhtkAFn2kZdDG4kF2Q-26" value="&lt;font style=&quot;font-size: 10px;&quot;&gt;URL&lt;/font&gt;" style="endArrow=openThin;endSize=12;dashed=1;html=1;rounded=0;endFill=0;" edge="1" parent="1">
          <mxGeometry x="-0.1333" width="160" relative="1" as="geometry">
            <mxPoint x="315" y="429.64" as="sourcePoint" />
            <mxPoint x="165" y="429.64" as="targetPoint" />
            <Array as="points">
              <mxPoint x="290" y="429.64" />
            </Array>
            <mxPoint as="offset" />
          </mxGeometry>
        </mxCell>
        <mxCell id="RWmhtkAFn2kZdDG4kF2Q-27" value="" style="html=1;points=[];perimeter=orthogonalPerimeter;outlineConnect=0;targetShapes=umlLifeline;portConstraint=eastwest;newEdgeStyle={&quot;edgeStyle&quot;:&quot;elbowEdgeStyle&quot;,&quot;elbow&quot;:&quot;vertical&quot;,&quot;curved&quot;:0,&quot;rounded&quot;:0};" vertex="1" parent="1">
          <mxGeometry x="475" y="470" width="10" height="70" as="geometry" />
        </mxCell>
        <mxCell id="RWmhtkAFn2kZdDG4kF2Q-28" value="&lt;font style=&quot;font-size: 10px;&quot;&gt;makeRequest(URL)&lt;/font&gt;" style="endArrow=blockThin;endSize=16;endFill=1;html=1;rounded=0;" edge="1" parent="1" target="RWmhtkAFn2kZdDG4kF2Q-27">
          <mxGeometry width="160" relative="1" as="geometry">
            <mxPoint x="165" y="489.72" as="sourcePoint" />
            <mxPoint x="315" y="489.72" as="targetPoint" />
            <mxPoint as="offset" />
          </mxGeometry>
        </mxCell>
        <mxCell id="RWmhtkAFn2kZdDG4kF2Q-29" value="&lt;font style=&quot;font-size: 10px;&quot;&gt;Response&lt;/font&gt;" style="endArrow=openThin;endSize=12;dashed=1;html=1;rounded=0;endFill=0;" edge="1" parent="1" source="RWmhtkAFn2kZdDG4kF2Q-27" target="RWmhtkAFn2kZdDG4kF2Q-3">
          <mxGeometry x="-0.0006" width="160" relative="1" as="geometry">
            <mxPoint x="315" y="530" as="sourcePoint" />
            <mxPoint x="165" y="530" as="targetPoint" />
            <Array as="points">
              <mxPoint x="380" y="520" />
              <mxPoint x="230" y="520" />
            </Array>
            <mxPoint as="offset" />
          </mxGeometry>
        </mxCell>
        <mxCell id="RWmhtkAFn2kZdDG4kF2Q-30" value="&lt;font style=&quot;font-size: 10px;&quot;&gt;parse(Response)&lt;/font&gt;" style="endArrow=blockThin;endSize=16;endFill=1;html=1;rounded=0;" edge="1" parent="1">
          <mxGeometry x="-0.0426" width="160" relative="1" as="geometry">
            <mxPoint x="165" y="570" as="sourcePoint" />
            <mxPoint x="634.9999999999998" y="570" as="targetPoint" />
            <mxPoint as="offset" />
          </mxGeometry>
        </mxCell>
        <mxCell id="RWmhtkAFn2kZdDG4kF2Q-32" value="" style="html=1;points=[];perimeter=orthogonalPerimeter;outlineConnect=0;targetShapes=umlLifeline;portConstraint=eastwest;newEdgeStyle={&quot;edgeStyle&quot;:&quot;elbowEdgeStyle&quot;,&quot;elbow&quot;:&quot;vertical&quot;,&quot;curved&quot;:0,&quot;rounded&quot;:0};" vertex="1" parent="1">
          <mxGeometry x="635" y="550" width="10" height="80" as="geometry" />
        </mxCell>
        <mxCell id="RWmhtkAFn2kZdDG4kF2Q-33" value="&lt;font style=&quot;font-size: 10px;&quot;&gt;articles&lt;/font&gt;" style="endArrow=openThin;endSize=12;dashed=1;html=1;rounded=0;endFill=0;" edge="1" parent="1" source="RWmhtkAFn2kZdDG4kF2Q-32">
          <mxGeometry width="160" relative="1" as="geometry">
            <mxPoint x="620" y="610" as="sourcePoint" />
            <mxPoint x="165" y="610" as="targetPoint" />
            <Array as="points">
              <mxPoint x="380" y="610" />
              <mxPoint x="230" y="610" />
            </Array>
            <mxPoint as="offset" />
          </mxGeometry>
        </mxCell>
        <mxCell id="RWmhtkAFn2kZdDG4kF2Q-34" value="loop" style="shape=umlFrame;whiteSpace=wrap;html=1;pointerEvents=0;" vertex="1" parent="1">
          <mxGeometry x="40" y="650" width="810" height="140" as="geometry" />
        </mxCell>
        <mxCell id="RWmhtkAFn2kZdDG4kF2Q-35" value="&lt;font style=&quot;font-size: 10px;&quot;&gt;maxint=[articles.size()]&lt;/font&gt;" style="text;strokeColor=none;fillColor=none;align=left;verticalAlign=top;spacingLeft=4;spacingRight=4;overflow=hidden;rotatable=0;points=[[0,0.5],[1,0.5]];portConstraint=eastwest;whiteSpace=wrap;html=1;" vertex="1" parent="1">
          <mxGeometry x="40" y="680" width="140" height="26" as="geometry" />
        </mxCell>
        <mxCell id="RWmhtkAFn2kZdDG4kF2Q-36" value="&lt;font style=&quot;font-size: 10px;&quot;&gt;parse(articles.remove(0))&lt;/font&gt;" style="endArrow=openThin;endSize=16;endFill=0;html=1;rounded=0;" edge="1" parent="1" target="RWmhtkAFn2kZdDG4kF2Q-37">
          <mxGeometry width="160" relative="1" as="geometry">
            <mxPoint x="165" y="692.66" as="sourcePoint" />
            <mxPoint x="634.9999999999998" y="692.66" as="targetPoint" />
            <mxPoint as="offset" />
          </mxGeometry>
        </mxCell>
        <mxCell id="RWmhtkAFn2kZdDG4kF2Q-39" value="" style="html=1;points=[];perimeter=orthogonalPerimeter;outlineConnect=0;targetShapes=umlLifeline;portConstraint=eastwest;newEdgeStyle={&quot;edgeStyle&quot;:&quot;elbowEdgeStyle&quot;,&quot;elbow&quot;:&quot;vertical&quot;,&quot;curved&quot;:0,&quot;rounded&quot;:0};" vertex="1" parent="1">
          <mxGeometry x="315" y="810" width="10" height="100" as="geometry" />
        </mxCell>
        <mxCell id="RWmhtkAFn2kZdDG4kF2Q-40" value="" style="html=1;points=[];perimeter=orthogonalPerimeter;outlineConnect=0;targetShapes=umlLifeline;portConstraint=eastwest;newEdgeStyle={&quot;edgeStyle&quot;:&quot;elbowEdgeStyle&quot;,&quot;elbow&quot;:&quot;vertical&quot;,&quot;curved&quot;:0,&quot;rounded&quot;:0};" vertex="1" parent="1">
          <mxGeometry x="320" y="850" width="10" height="40" as="geometry" />
        </mxCell>
        <mxCell id="RWmhtkAFn2kZdDG4kF2Q-41" value="&lt;font style=&quot;font-size: 10px;&quot;&gt;incrementPage()&lt;/font&gt;" style="html=1;align=left;spacingLeft=2;endArrow=block;rounded=0;edgeStyle=orthogonalEdgeStyle;curved=0;rounded=0;" edge="1" target="RWmhtkAFn2kZdDG4kF2Q-40" parent="1">
          <mxGeometry relative="1" as="geometry">
            <mxPoint x="325" y="830" as="sourcePoint" />
            <Array as="points">
              <mxPoint x="350" y="830" />
              <mxPoint x="350" y="860" />
            </Array>
          </mxGeometry>
        </mxCell>
      </root>
    </mxGraphModel>
  </diagram>
</mxfile>
